<svg width="200" height="200" viewBox="0 0 200 200" fill="none" xmlns="http://www.w3.org/2000/svg">
<rect width="200" height="200" rx="5" fill="#F1F1F1"/>
<path fill-rule="evenodd" clip-rule="evenodd" d="M183.765 65.8226C181.422 67.6451 177.181 65.544 173.237 67.017C169.245 68.508 164.792 73.0503 159.703 73.0503C154.615 73.0503 144.438 58.3065 133.218 57.3581C121.997 56.4097 113.36 64.3645 105.009 62.2583C96.6576 60.152 93.8382 53.264 90.0913 50.2429C86.3444 47.2218 82.6361 42.9288 73.8697 43.1273C65.1034 43.3257 57.385 50.0398 50.2679 52.9798C45.9358 54.7693 40.8077 55.8081 36.2807 56.7122L35.5586 56.8564C32.9312 57.3817 30.5385 57.8716 28.6664 58.4523C28.1445 58.6141 27.6146 58.7817 27.0821 58.9512L26.6023 59.1042L26.282 59.2065C21.7441 60.656 17.2053 62.1116 15.9141 61.2806L15.9805 61.2912C18.1968 61.5812 22.8806 56.1631 25.0175 55.0758C27.176 53.9776 28.5393 54.1227 31.0162 54.1227C32.0775 53.5054 33.1109 52.4201 35.0561 51.4808C37.0012 50.5415 39.8416 50.405 42.4498 49.7713C45.058 49.1376 45.2989 47.029 47.2202 46.513C49.1415 45.997 48.8676 46.8144 51.2924 46.8144C52.5532 46.8144 55.7974 43.925 59.0099 41.0516L59.3803 40.7203C62.2174 38.1832 64.9691 35.7461 66.2406 35.42C67.1609 35.184 68.1392 36.1289 69.0024 35.8522C69.7384 35.2135 73.5083 30.3496 77.6432 30.3496C79.3 30.3496 81.1855 32.3357 82.991 34.5047L83.1913 34.7464C83.3579 34.9483 83.5237 35.1511 83.6884 35.3535L83.8857 35.5961C85.0987 37.0897 86.25 38.5281 87.2404 39.3312C89.9171 41.5016 93.5433 42.877 95.8583 45.1529C98.1732 47.4288 99.8822 51.4808 101.199 52.327C101.883 52.7664 102.894 52.6187 103.894 52.4431L104.115 52.4038C104.964 52.2533 105.787 52.1125 106.376 52.327C107.708 52.812 109.2 54.7781 111.697 54.3779C114.195 53.9776 116.438 51.2176 119.597 49.9996C122.015 49.0671 124.329 49.9996 125.166 49.9996C127.095 49.9996 129.02 46.2042 132.534 46.2042C134.656 46.2042 139.136 51.2833 143.181 53.1054C147.227 54.9275 145.084 52.8949 149.112 56.4474C150.481 57.6553 151.744 59.3485 153.019 61.0693L153.244 61.3732L153.47 61.677C155.803 64.8153 158.225 67.866 161.459 68.0534C164.948 68.2556 170.744 63.3348 175.214 63.3348C178.824 63.3348 180.492 66.2481 183.85 65.7541L183.765 65.8226Z" fill="#C3AE71"/>
<path fill-rule="evenodd" clip-rule="evenodd" d="M15.8945 61.343C15.8945 59.2624 18.1585 53.1689 20.353 51.094C22.3316 49.2231 23.991 46.739 24.999 46.2417C29.0403 44.2478 29.3988 45.521 35.1338 42.7318C39.2867 40.712 40.427 38.6261 42.2415 37.314C44.0561 36.0019 47.6741 36.8583 49.9601 36.3881C52.2462 35.9178 55.9414 31.6074 60.8385 27.991C65.7356 24.3747 71.3055 20.8875 77.8374 18.1863C82.4238 20.2549 84.9241 23.8818 90.4202 29.0147C92.4413 30.9023 95.6761 32.8968 98.7148 35.5315C102.006 38.3855 108.033 42.7318 108.987 42.7318C109.884 42.7318 110.153 41.6065 113.133 40.5117C116.114 39.417 121.064 38.9784 124.827 37.9379C127.266 37.2637 130.308 34.9898 131.744 34.9898C133.18 34.9898 141.225 42.7861 142.991 43.1232C144.756 43.4604 145.73 42.432 147.482 43.5599C149.234 44.6877 153.988 55.6583 159.892 56.7115C165.796 57.7646 168.162 56.5019 173.272 56.5019C178.382 56.5019 183.385 64.2264 183.85 65.8239C180.492 66.3187 178.823 63.4006 175.213 63.4006C170.742 63.4006 164.946 68.3295 161.456 68.127C156.239 67.8243 153.136 60.0602 149.108 56.5019C145.08 52.9435 147.223 54.9794 143.177 53.1543C139.131 51.3292 134.65 46.2417 132.528 46.2417C129.014 46.2417 127.089 50.0434 125.159 50.0434C124.322 50.0434 122.008 49.1093 119.59 50.0434C116.43 51.2634 114.187 54.0279 111.689 54.4289C109.191 54.8298 107.699 52.8604 106.367 52.3746C105.035 51.8889 102.507 53.2222 101.19 52.3746C99.8725 51.5271 98.1633 47.4684 95.8481 45.1887C93.5329 42.909 89.9063 41.5314 87.2292 39.3573C84.5521 37.1833 80.6995 30.3609 77.6309 30.3609C73.4956 30.3609 69.7252 35.2329 68.9891 35.8726C68.1258 36.1497 67.1474 35.2033 66.2269 35.4397C63.4625 36.1497 53.702 46.8529 51.277 46.8529C48.852 46.8529 49.1259 46.0342 47.2043 46.551C45.2828 47.0679 45.0419 49.1799 42.4334 49.8147C39.8249 50.4494 36.9841 50.5862 35.0388 51.5271C33.0934 52.4679 32.0598 53.555 30.9985 54.1733C28.5212 54.1733 27.1578 54.0279 24.999 55.128C22.8403 56.228 18.0826 61.7542 15.8945 61.343Z" fill="black"/>
<path d="M184.109 157.675H15.8945V170.615H184.109V157.675Z" fill="#C3AE71"/>
<path d="M62.3827 139.818C62.9983 139.818 63.7086 139.78 64.5135 139.702C65.3185 139.624 65.9578 139.533 66.4313 139.429V95.44C66.4313 93.1043 66.5497 91.4174 66.7864 90.3793C67.0232 89.3413 67.6388 88.6276 68.6331 88.2383C69.6275 87.849 71.2612 87.4986 73.534 87.1872C73.6287 86.3567 73.6287 85.5522 73.534 84.7737C72.1608 84.7737 70.5982 84.7996 68.8462 84.8515C67.0942 84.9034 65.6263 84.9294 64.4425 84.9294L64.3273 84.9293C63.5873 84.928 62.655 84.9151 61.5304 84.8904C60.3466 84.8645 59.1273 84.8385 57.8725 84.8126C56.6176 84.7866 55.5404 84.7737 54.6407 84.7737C54.4987 85.5522 54.4987 86.3827 54.6407 87.2651C58.4288 87.5765 60.8201 88.3032 61.8145 89.4451C62.3354 89.9641 62.6313 90.7686 62.7023 91.8586C62.7734 92.9486 62.8089 94.4798 62.8089 96.4522V126.349L33.9717 84.7737C33.1667 84.8256 32.2315 84.8515 31.1661 84.8515H29.2128C27.5555 84.8515 25.8982 84.8256 24.2409 84.7737C22.5836 84.7218 21.021 84.6958 19.5531 84.6958C19.5057 85.5263 19.5057 86.3308 19.5531 87.1094C21.3525 87.317 22.7612 87.5635 23.7792 87.849C24.7973 88.1345 25.5549 88.5757 26.0521 89.1726C26.5493 89.7695 26.8571 90.6648 26.9755 91.8586C27.0939 93.0524 27.153 94.6874 27.153 96.7636L27.1528 128.873C27.1487 130.547 27.0896 131.86 26.9755 132.811C26.8571 133.798 26.5848 134.537 26.1587 135.03C25.7325 135.523 25.0459 135.887 24.0989 136.12C23.1518 136.354 21.826 136.6 20.1213 136.86C19.9793 137.742 19.9793 138.573 20.1213 139.351C21.4945 139.351 23.0453 139.325 24.7736 139.273C26.502 139.222 27.958 139.196 29.1418 139.196C30.3256 139.196 31.7817 139.222 33.51 139.273C35.2383 139.325 36.8128 139.351 38.2333 139.351C38.328 138.521 38.328 137.69 38.2333 136.86C36.3866 136.652 34.9661 136.367 33.9717 136.003C32.9773 135.64 32.2434 135.199 31.7698 134.68C31.2963 134.109 31.0122 133.291 30.9175 132.227C30.8228 131.163 30.7754 129.645 30.7754 127.673V94.3501L62.3827 139.818ZM118.023 139.818C118.639 139.818 119.349 139.78 120.154 139.702C120.959 139.624 121.598 139.533 122.072 139.429L122.072 95.257C122.078 93.016 122.196 91.3901 122.427 90.3793C122.663 89.3413 123.279 88.6276 124.273 88.2383C125.268 87.849 126.901 87.4986 129.174 87.1872C129.269 86.3567 129.269 85.5522 129.174 84.7737C127.801 84.7737 126.238 84.7996 124.486 84.8515C122.734 84.9034 121.267 84.9294 120.083 84.9294L119.968 84.9293C119.228 84.928 118.295 84.9151 117.171 84.8904C115.987 84.8645 114.768 84.8385 113.513 84.8126C112.258 84.7866 111.181 84.7737 110.281 84.7737C110.139 85.5522 110.139 86.3827 110.281 87.2651C114.069 87.5765 116.46 88.3032 117.455 89.4451C117.976 89.9641 118.272 90.7686 118.343 91.8586C118.414 92.9486 118.449 94.4798 118.449 96.4522V126.349L89.6119 84.7737C88.807 84.8256 87.8718 84.8515 86.8063 84.8515H84.8531C83.1958 84.8515 81.5385 84.8256 79.8812 84.7737C78.2238 84.7218 76.6612 84.6958 75.1933 84.6958C75.146 85.5263 75.146 86.3308 75.1933 87.1094C76.9927 87.317 78.4014 87.5635 79.4195 87.849C80.4375 88.1345 81.1952 88.5757 81.6924 89.1726C82.1895 89.7695 82.4973 90.6648 82.6157 91.8586C82.7341 93.0524 82.7933 94.6874 82.7933 96.7636L82.7931 128.873C82.789 130.547 82.7299 131.86 82.6157 132.811C82.4973 133.798 82.2251 134.537 81.7989 135.03C81.3727 135.523 80.6861 135.887 79.7391 136.12C78.7921 136.354 77.4662 136.6 75.7616 136.86C75.6195 137.742 75.6195 138.573 75.7616 139.351C77.1348 139.351 78.6855 139.325 80.4139 139.273C82.1422 139.222 83.5983 139.196 84.7821 139.196C85.9658 139.196 87.4219 139.222 89.1503 139.273C90.8786 139.325 92.453 139.351 93.8736 139.351C93.9683 138.521 93.9683 137.69 93.8736 136.86C92.0269 136.652 90.6063 136.367 89.6119 136.003C88.6175 135.64 87.8836 135.199 87.4101 134.68C86.9366 134.109 86.6525 133.291 86.5577 132.227C86.463 131.163 86.4157 129.645 86.4157 127.673V94.3501L118.023 139.818ZM132.456 139.301C133.387 139.301 134.528 139.288 135.879 139.262L139.931 139.184C141.282 139.158 142.376 139.146 143.214 139.146C144.099 139.146 145.194 139.158 146.498 139.184C147.802 139.21 149.106 139.236 150.41 139.262C151.714 139.288 152.832 139.301 153.764 139.301C153.903 138.472 153.903 137.644 153.764 136.815C152.134 136.66 150.864 136.492 149.956 136.31C149.048 136.129 148.396 135.831 148 135.417C147.604 135.003 147.36 134.33 147.266 133.398C147.173 132.466 147.127 131.197 147.127 129.592V114.445L148.943 114.678C150.014 114.782 150.853 115.028 151.458 115.416C152.064 115.804 152.762 116.672 153.554 118.018L166.479 139.223C167.224 139.223 167.876 139.21 168.435 139.184C168.994 139.158 169.646 139.146 170.391 139.146C171.136 139.146 172.114 139.158 173.325 139.184C174.536 139.21 175.794 139.236 177.098 139.262C178.402 139.288 179.496 139.301 180.381 139.301C180.521 138.472 180.521 137.644 180.381 136.815C178.891 136.66 177.657 136.479 176.679 136.272C175.701 136.064 174.839 135.689 174.094 135.145C173.348 134.602 172.568 133.786 171.753 132.699C170.938 131.611 169.925 130.109 168.714 128.193L161.379 116.387C160.494 114.937 159.702 113.901 159.003 113.28V113.047C162.869 111.752 165.699 109.811 167.492 107.221C169.285 104.632 170.181 101.681 170.181 98.3665C170.181 95.0006 169.401 92.3208 167.841 90.3272C166.281 88.3336 164.231 86.8966 161.693 86.0163C159.155 85.136 156.418 84.6958 153.484 84.6958C152.739 84.6958 151.703 84.7217 150.375 84.7735C149.048 84.8253 147.721 84.8641 146.393 84.89C145.066 84.9159 143.983 84.9288 143.145 84.9288L142.999 84.9286C142.346 84.9269 141.381 84.914 140.106 84.89C138.732 84.8641 137.334 84.8382 135.914 84.8123C134.493 84.7864 133.341 84.7735 132.456 84.7735C132.316 85.6538 132.316 86.4823 132.456 87.2591C134.645 87.4144 136.228 87.6474 137.206 87.9581C138.184 88.2688 138.801 88.8902 139.058 89.8223C139.314 90.7544 139.442 92.282 139.442 94.4051V130.601C139.442 132.466 139.325 133.799 139.093 134.602C138.86 135.404 138.254 135.922 137.276 136.155C136.298 136.388 134.691 136.608 132.456 136.815C132.316 137.696 132.316 138.524 132.456 139.301ZM149.831 111.61C149.404 111.61 148.954 111.584 148.479 111.532C148.005 111.48 147.46 111.402 146.843 111.298V88.1135C147.602 88.0095 148.325 87.9314 149.013 87.8794C149.701 87.8273 150.281 87.8013 150.756 87.8013C154.407 87.8013 157.17 88.7901 159.043 90.7676C160.916 92.7452 161.853 95.5815 161.853 99.2764C161.853 103.336 160.774 106.406 158.616 108.488C156.459 110.569 153.53 111.61 149.831 111.61Z" fill="black"/>
</svg>
